<svg id="Layer_1" data-name="Layer 1" xmlns="http://www.w3.org/2000/svg" viewBox="0 0 233.8 27.84"><defs><style>.cls-1{fill:#232323;}</style></defs><title>[사장님사이트]logo_가로형</title><path class="cls-1" d="M150,44.71v4.17a15,15,0,0,1-2.58-1.22,14.86,14.86,0,0,1-4.86-4.53,14.8,14.8,0,0,1-4.83,4.53,14.21,14.21,0,0,1-2.61,1.22V44.71a9.08,9.08,0,0,0,.93-.63,12.88,12.88,0,0,0,1.39-1.16c2.58-2.74,3.17-5.36,3.17-9.19V30.6h4.3v3.14c0,3.84.69,6.81,3,9.22A12.69,12.69,0,0,0,150,44.71Zm11.37-7.31v4.3h-3.8V56h-4.23V28.51h4.23v8.89Z" transform="translate(-62.71 -28.12)"/><path class="cls-1" d="M179.53,33.51h-6a10.56,10.56,0,0,0,3.27,4.33,16.88,16.88,0,0,0,2.35,1.69v4.13c-3.77-1.16-7-5.72-7.17-6a12.4,12.4,0,0,1-4.76,4.53,17.59,17.59,0,0,1-3.11,1.42V39.72a11.06,11.06,0,0,0,6.05-6.22h-6.45V29.67h15.8Zm3.17,13.09a3.7,3.7,0,0,1,3.9,3.47v2.68A3.32,3.32,0,0,1,183.07,56H170.14a3.86,3.86,0,0,1-3.6-3.17V50.07c.36-2.48,3.17-3.47,4.56-3.47Zm-10.22,3.5c-1.29,0-1.52.5-1.75.93l0,.86c.4.89.89.89,1.79.89h8.79c.79,0,1.45-.23,1.45-.89v-.6a1.35,1.35,0,0,0-1.45-1.19ZM189.78,38.9h-3.87v5.42h-3.83V28.12h3.83V34.7h3.87Z" transform="translate(-62.71 -28.12)"/><path class="cls-1" d="M196.56,38.53h10.55v3.7H192.43V30h4.13Zm-1.85,7.34h19.44V56H194.71Zm16,6.58V49.34H198.54v3.11Zm-1-24.33H214V43.76h-4.3Z" transform="translate(-62.71 -28.12)"/><path class="cls-1" d="M232,44.71v4.17a15,15,0,0,1-2.58-1.22,14.86,14.86,0,0,1-4.86-4.53,14.81,14.81,0,0,1-4.83,4.53,14.21,14.21,0,0,1-2.61,1.22V44.71a9.08,9.08,0,0,0,.93-.63,12.88,12.88,0,0,0,1.39-1.16c2.58-2.74,3.17-5.36,3.17-9.19V30.6h4.3v3.14c0,3.84.69,6.81,3,9.22A12.69,12.69,0,0,0,232,44.71Zm11.37-7.31v4.3h-3.8V56h-4.23V28.51h4.23v8.89Z" transform="translate(-62.71 -28.12)"/><path class="cls-1" d="M250.82,50.07c-2.35,0-5.09-1.55-5.09-5.79V36.42a5.76,5.76,0,0,1,6.08-6.08h2.94c3.67,0,6,2.74,6,6.18v8c0,3.34-2.22,5.59-4.53,5.59Zm3.31-3.41a2.62,2.62,0,0,0,2.41-2.84v-7a2.6,2.6,0,0,0-2.41-2.68h-1.65a2.71,2.71,0,0,0-2.55,2.68v7c0,2.15.86,2.84,2.55,2.84ZM267.91,56h-4.43V28.15h4.43Z" transform="translate(-62.71 -28.12)"/><path class="cls-1" d="M271.55,53V49h25v4Zm21.29-23.8V33H274.69V29.24ZM278.83,42h14.38v3.74H274.69V35.42h18.15v3.74h-14Z" transform="translate(-62.71 -28.12)"/><path class="cls-1" d="M69.31,37.26V47.55h-6.6V37.26h2.08v2.66h2.38V37.26ZM67.17,45.4V42.25H64.79V45.4Zm7.3-4.68H72.91V35.84H70.74V50.58h2.21l0-7.59h1.56v7.59h2V35.84h-2Z" transform="translate(-62.71 -28.12)"/><path class="cls-1" d="M80.27,38.8v2.82h5.47v1.82H78.08V36.78h7.3v2Zm-1.21,7.88h8v-.8h-8v-1.4H89.5v3.76H81.26V49H89.5v1.6H79.08Zm12.1-5.51H89.55v2.72h-2.2v-8h2.2V39h1.61Z" transform="translate(-62.71 -28.12)"/><path class="cls-1" d="M100.73,40.7v9.69H98.9V48.26c-1.92,1.78-7,1.64-7,1.64V48.21a17.86,17.86,0,0,0,6.94-1V40.7Z" transform="translate(-62.71 -28.12)"/><path class="cls-1" d="M95.73,41.26H94.09A1.7,1.7,0,0,0,92.35,43v1.83a1.66,1.66,0,0,0,1.74,1.58h1.5a1.65,1.65,0,0,0,1.84-1.7V43a1.65,1.65,0,0,0-1.7-1.71m.18,3.08a.71.71,0,0,1-.73.72h-.54a.76.76,0,0,1-.79-.72v-1a.76.76,0,0,1,.79-.71h.54a.71.71,0,0,1,.73.71Z" transform="translate(-62.71 -28.12)"/><path class="cls-1" d="M109.8,36.81V44h-7.4V36.81Zm-6.1,13.81V45.68h2.18v2.85h8.25v2.09Zm.8-11.78V42h3.19V38.84Zm7.19-2.94v9.48H114V35.9Z" transform="translate(-62.71 -28.12)"/><polygon class="cls-1" points="65.16 14.47 65.16 16.46 52.51 16.46 52.51 14.47 57.65 14.47 57.65 12.96 60.05 12.96 60.05 14.47 65.16 14.47"/><path class="cls-1" d="M127.12,45.54v2.05a6.78,6.78,0,0,1-.73,3h-2.17a6.42,6.42,0,0,0,.74-3.06h-9v-2Z" transform="translate(-62.71 -28.12)"/><path class="cls-1" d="M116,36.27h11v1.79h-3.68a6.08,6.08,0,0,0,3.6,2.3v1.36a8.12,8.12,0,0,1-5.42-2.58,11.1,11.1,0,0,1-5.44,2.81v-1.5c1.74-.51,3.3-1.71,3.49-2.38H116Z" transform="translate(-62.71 -28.12)"/></svg>